<svg width="61" height="60" viewBox="0 0 61 60" fill="none" xmlns="http://www.w3.org/2000/svg">
<path d="M30.5 32.5C29.7917 32.5 29.1975 32.26 28.7175 31.78C28.2375 31.3 27.9983 30.7067 28 30V10C28 9.29168 28.24 8.69751 28.72 8.21751C29.2 7.73751 29.7933 7.49834 30.5 7.50001C31.2083 7.50001 31.8025 7.74001 32.2825 8.22001C32.7625 8.70001 33.0017 9.29334 33 10V30C33 30.7083 32.76 31.3025 32.28 31.7825C31.8 32.2625 31.2067 32.5017 30.5 32.5ZM30.5 52.5C27.375 52.5 24.4475 51.9058 21.7175 50.7175C18.9875 49.5292 16.6125 47.9258 14.5925 45.9075C12.5725 43.8858 10.9692 41.5108 9.7825 38.7825C8.59583 36.0542 8.00167 33.1267 8 30C8 27.125 8.52083 24.375 9.5625 21.75C10.6042 19.125 12.1042 16.75 14.0625 14.625C14.5208 14.125 15.1042 13.875 15.8125 13.875C16.5208 13.875 17.125 14.125 17.625 14.625C18.0833 15.0833 18.2917 15.6567 18.25 16.345C18.2083 17.0333 17.9583 17.6475 17.5 18.1875C16.0417 19.8125 14.9275 21.6358 14.1575 23.6575C13.3875 25.6792 13.0017 27.7933 13 30C13 34.875 14.6983 39.0108 18.095 42.4075C21.4917 45.8042 25.6267 47.5017 30.5 47.5C35.375 47.5 39.5108 45.8017 42.9075 42.405C46.3042 39.0083 48.0017 34.8733 48 30C48 27.7917 47.6042 25.6558 46.8125 23.5925C46.0208 21.5292 44.8958 19.6858 43.4375 18.0625C42.9792 17.5625 42.7392 16.9792 42.7175 16.3125C42.6958 15.6458 42.915 15.0833 43.375 14.625C43.875 14.125 44.4792 13.875 45.1875 13.875C45.8958 13.875 46.4792 14.125 46.9375 14.625C48.8958 16.75 50.3958 19.125 51.4375 21.75C52.4792 24.375 53 27.125 53 30C53 33.125 52.4058 36.0525 51.2175 38.7825C50.0292 41.5125 48.4258 43.8875 46.4075 45.9075C44.3858 47.9275 42.0108 49.5317 39.2825 50.72C36.5542 51.9083 33.6267 52.5017 30.5 52.5Z" fill="white"/>
</svg>
