<svg width="60" height="60" viewBox="0 0 60 60" fill="none" xmlns="http://www.w3.org/2000/svg">
<path d="M15 46V14C15 13.6022 15.158 13.2206 15.4393 12.9393C15.7206 12.658 16.1022 12.5 16.5 12.5H23.5C23.8978 12.5 24.2794 12.658 24.5607 12.9393C24.842 13.2206 25 13.6022 25 14V46C25 46.3978 24.842 46.7794 24.5607 47.0607C24.2794 47.342 23.8978 47.5 23.5 47.5H16.5C16.1022 47.5 15.7206 47.342 15.4393 47.0607C15.158 46.7794 15 46.3978 15 46ZM35 46V14C35 13.6022 35.158 13.2206 35.4393 12.9393C35.7206 12.658 36.1022 12.5 36.5 12.5H43.5C43.8978 12.5 44.2794 12.658 44.5607 12.9393C44.842 13.2206 45 13.6022 45 14V46C45 46.3978 44.842 46.7794 44.5607 47.0607C44.2794 47.342 43.8978 47.5 43.5 47.5H36.5C36.1022 47.5 35.7206 47.342 35.4393 47.0607C35.158 46.7794 35 46.3978 35 46Z" stroke="#774D0F" stroke-width="4"/>
</svg>
