<svg width="60" height="60" viewBox="0 0 60 60" fill="none" xmlns="http://www.w3.org/2000/svg">
<path d="M36.2499 31.25L37.3149 21.665C37.3381 21.4555 37.3168 21.2434 37.2525 21.0426C37.1882 20.8418 37.0824 20.6568 36.9418 20.4997C36.8012 20.3426 36.629 20.2169 36.4366 20.1308C36.2441 20.0447 36.0357 20.0001 35.8249 20H24.1749C23.9641 20.0001 23.7556 20.0447 23.5632 20.1308C23.3707 20.2169 23.1986 20.3426 23.058 20.4997C22.9174 20.6568 22.8115 20.8418 22.7472 21.0426C22.6829 21.2434 22.6617 21.4555 22.6849 21.665L24.8524 41.165C24.893 41.5319 25.0674 41.8709 25.3423 42.1172C25.6172 42.3635 25.9733 42.4998 26.3424 42.5H27.4999" stroke="#014E4D" stroke-width="3.5" stroke-linecap="round"/>
<path d="M11.25 17.5C12.9076 17.5 14.4973 16.8415 15.6694 15.6694C16.8415 14.4973 17.5 12.9076 17.5 11.25C17.5 9.5924 16.8415 8.00269 15.6694 6.83058C14.4973 5.65848 12.9076 5 11.25 5C9.5924 5 8.00269 5.65848 6.83058 6.83058C5.65848 8.00269 5 9.5924 5 11.25C5 12.9076 5.65848 14.4973 6.83058 15.6694C8.00269 16.8415 9.5924 17.5 11.25 17.5Z" stroke="#014E4D" stroke-width="3.5" stroke-miterlimit="1.5" stroke-linecap="round" stroke-linejoin="round"/>
<path d="M11.25 11.25L22.5 20M11.25 48.75L23.75 38.75M48.75 11.25L37.5 20" stroke="#014E4D" stroke-width="3.5" stroke-linecap="round" stroke-linejoin="round"/>
<path d="M11.25 55C12.9076 55 14.4973 54.3415 15.6694 53.1694C16.8415 51.9973 17.5 50.4076 17.5 48.75C17.5 47.0924 16.8415 45.5027 15.6694 44.3306C14.4973 43.1585 12.9076 42.5 11.25 42.5C9.5924 42.5 8.00269 43.1585 6.83058 44.3306C5.65848 45.5027 5 47.0924 5 48.75C5 50.4076 5.65848 51.9973 6.83058 53.1694C8.00269 54.3415 9.5924 55 11.25 55ZM48.75 17.5C50.4076 17.5 51.9973 16.8415 53.1694 15.6694C54.3415 14.4973 55 12.9076 55 11.25C55 9.5924 54.3415 8.00269 53.1694 6.83058C51.9973 5.65848 50.4076 5 48.75 5C47.0924 5 45.5027 5.65848 44.3306 6.83058C43.1585 8.00269 42.5 9.5924 42.5 11.25C42.5 12.9076 43.1585 14.4973 44.3306 15.6694C45.5027 16.8415 47.0924 17.5 48.75 17.5Z" stroke="#014E4D" stroke-width="3.5" stroke-miterlimit="1.5" stroke-linecap="round" stroke-linejoin="round"/>
<path d="M54.1652 41.6675C52.6202 37.7425 49.0852 35 44.9752 35C40.5802 35 36.8452 38.1375 35.4927 42.5" stroke="#014E4D" stroke-width="3.5" stroke-linecap="round" stroke-linejoin="round"/>
<path d="M49.9875 41.93H53.5C53.6969 41.93 53.892 41.8912 54.074 41.8158C54.256 41.7404 54.4213 41.6299 54.5606 41.4907C54.6999 41.3514 54.8104 41.186 54.8858 41.004C54.9612 40.822 55 40.627 55 40.43V36.375M35.835 48.3325C37.38 52.2575 40.915 55 45.025 55C49.42 55 53.155 51.8625 54.5075 47.5" stroke="#014E4D" stroke-width="3.5" stroke-linecap="round" stroke-linejoin="round"/>
<path d="M40.0125 48.0701H36.5C36.1022 48.0701 35.7206 48.2281 35.4393 48.5094C35.158 48.7907 35 49.1722 35 49.5701V53.6251" stroke="#014E4D" stroke-width="3.5" stroke-linecap="round" stroke-linejoin="round"/>
</svg>
